<svg id="svg" version="1.1" xmlns="http://www.w3.org/2000/svg" xmlns:xlink="http://www.w3.org/1999/xlink" width="400" height="400" viewBox="0, 0, 400,400"><g id="svgg"><path id="path0" d="M299.805 40.039 C 298.086 40.505,294.307 41.451,291.406 42.140 C 288.506 42.830,285.605 43.554,284.961 43.750 C 284.316 43.947,283.262 44.199,282.617 44.311 C 281.973 44.424,280.391 44.799,279.102 45.145 C 277.813 45.491,275.703 46.029,274.414 46.340 C 273.125 46.652,271.455 47.077,270.703 47.285 C 269.951 47.494,263.887 48.985,257.227 50.600 C 244.669 53.646,244.411 53.710,239.258 55.066 C 237.539 55.519,235.776 55.953,235.340 56.031 C 233.777 56.309,218.136 60.176,216.797 60.615 C 216.045 60.861,215.078 61.106,214.648 61.159 C 214.219 61.211,213.378 61.445,212.779 61.677 C 212.181 61.910,211.566 62.070,211.412 62.034 C 211.259 61.997,210.430 62.171,209.570 62.419 C 208.140 62.833,189.293 67.480,187.856 67.773 C 187.515 67.843,186.548 68.086,185.708 68.314 C 184.867 68.542,181.895 69.273,179.102 69.939 C 172.668 71.472,171.643 71.720,169.727 72.209 C 168.867 72.428,167.285 72.812,166.211 73.063 C 165.137 73.313,163.687 73.690,162.988 73.899 L 161.719 74.279 161.724 111.261 C 161.730 151.127,161.693 150.192,163.237 149.797 C 163.798 149.654,164.521 149.479,164.844 149.410 C 165.639 149.238,171.742 147.703,173.438 147.248 C 175.277 146.754,184.429 144.551,185.487 144.347 C 185.951 144.258,186.477 144.095,186.655 143.984 C 186.834 143.874,187.540 143.685,188.224 143.565 C 188.908 143.444,190.475 143.069,191.706 142.730 C 192.938 142.391,194.736 141.937,195.703 141.722 C 196.670 141.506,198.076 141.179,198.828 140.995 C 199.580 140.811,200.898 140.490,201.758 140.282 C 202.617 140.074,204.287 139.652,205.469 139.344 C 206.650 139.036,208.584 138.567,209.766 138.301 C 210.947 138.035,212.881 137.554,214.063 137.232 C 217.524 136.288,218.745 135.985,222.461 135.145 C 226.027 134.339,227.339 134.019,230.434 133.199 C 232.274 132.712,232.999 132.535,235.156 132.044 C 235.908 131.872,237.578 131.440,238.867 131.083 C 240.156 130.726,242.002 130.258,242.969 130.042 C 245.102 129.565,246.274 129.278,251.563 127.934 C 253.818 127.361,256.016 126.822,256.445 126.736 C 256.875 126.651,260.742 125.693,265.039 124.609 C 269.336 123.524,273.291 122.557,273.828 122.459 C 274.365 122.361,275.859 122.000,277.148 121.657 C 278.438 121.313,279.756 120.970,280.078 120.894 C 281.480 120.565,293.836 117.464,296.680 116.728 C 298.398 116.283,300.068 115.878,300.391 115.828 C 301.375 115.677,303.209 115.230,305.589 114.562 C 309.756 113.392,309.392 117.021,309.386 76.726 L 309.380 41.682 308.416 40.418 C 307.210 38.836,304.652 38.724,299.805 40.039 M253.320 174.258 C 251.602 174.671,249.668 175.175,249.023 175.377 C 248.379 175.580,247.371 175.829,246.784 175.931 C 246.197 176.034,245.569 176.209,245.389 176.320 C 245.209 176.431,244.547 176.614,243.918 176.726 C 242.638 176.954,236.038 178.546,231.836 179.639 C 230.977 179.863,229.307 180.250,228.125 180.501 C 226.943 180.751,225.537 181.106,225.000 181.288 C 224.463 181.471,223.584 181.695,223.047 181.786 C 222.222 181.926,218.265 182.899,210.742 184.812 C 209.883 185.030,208.640 185.373,207.980 185.573 C 207.320 185.774,206.386 185.938,205.904 185.938 C 205.421 185.938,204.731 186.096,204.369 186.289 C 204.007 186.483,203.150 186.730,202.465 186.838 C 201.780 186.945,201.047 187.140,200.836 187.271 C 200.625 187.401,199.955 187.576,199.347 187.660 C 198.739 187.743,196.133 188.352,193.555 189.012 C 188.748 190.243,179.614 192.480,178.284 192.751 C 177.874 192.835,176.836 193.083,175.977 193.303 C 175.117 193.523,171.868 194.345,168.755 195.129 C 165.643 195.914,162.784 196.723,162.402 196.927 C 161.732 197.286,161.443 271.751,162.109 272.387 C 162.302 272.571,166.442 271.780,167.578 271.342 C 167.900 271.218,168.604 271.041,169.141 270.950 C 169.678 270.858,171.260 270.484,172.656 270.118 C 174.053 269.753,175.484 269.397,175.837 269.328 C 176.190 269.258,177.859 268.848,179.548 268.415 C 181.236 267.982,184.199 267.259,186.133 266.809 C 188.066 266.358,190.176 265.828,190.820 265.630 C 191.465 265.432,192.432 265.194,192.969 265.100 C 194.423 264.847,199.167 263.686,201.172 263.092 C 202.139 262.806,204.600 262.200,206.641 261.745 C 208.682 261.290,211.011 260.746,211.816 260.537 C 212.622 260.328,213.940 259.994,214.746 259.797 C 215.552 259.599,216.986 259.232,217.934 258.981 C 218.882 258.730,220.024 258.454,220.473 258.368 C 221.448 258.181,236.716 254.432,238.672 253.900 C 240.382 253.435,243.361 252.691,244.139 252.535 C 245.553 252.251,247.195 251.848,248.828 251.383 C 249.795 251.108,251.553 250.667,252.734 250.402 C 257.261 249.389,259.134 248.706,260.022 247.749 L 260.938 246.761 260.938 211.680 C 260.938 173.768,261.019 175.166,258.738 174.078 C 257.138 173.315,257.263 173.311,253.320 174.258 " stroke="none" fill="#5cccf4" fill-rule="evenodd"></path><path id="path1" d="M101.471 122.624 L 100.195 123.764 100.195 145.249 L 100.195 166.734 101.122 167.720 C 101.631 168.262,102.686 169.004,103.465 169.369 C 105.292 170.222,114.394 174.608,122.852 178.710 C 126.504 180.481,131.777 183.030,134.570 184.375 C 137.363 185.719,142.988 188.443,147.070 190.427 C 151.152 192.411,155.993 194.761,157.826 195.650 C 159.660 196.539,161.374 197.266,161.635 197.266 C 162.126 197.266,162.363 151.179,161.881 149.385 C 161.728 148.813,160.266 147.901,156.906 146.281 C 154.289 145.019,148.436 142.188,143.898 139.990 C 131.560 134.012,124.508 130.606,119.727 128.317 C 117.363 127.186,113.239 125.185,110.562 123.872 C 104.836 121.064,103.433 120.871,101.471 122.624 M101.343 244.947 L 100.195 246.145 100.091 287.521 C 100.002 322.474,100.072 329.103,100.539 330.220 C 101.147 331.676,98.402 330.235,133.203 347.366 C 156.878 359.021,161.616 361.328,161.869 361.328 C 162.167 361.328,162.181 273.157,161.883 272.050 C 161.724 271.456,158.815 269.847,150.658 265.842 C 144.603 262.868,132.032 256.681,122.723 252.093 C 103.823 242.777,103.519 242.676,101.343 244.947 " stroke="none" fill="#3c5cac" fill-rule="evenodd"></path><path id="path2" d="M309.562 76.563 C 309.562 95.361,309.610 103.052,309.668 93.652 C 309.726 84.253,309.726 68.872,309.668 59.473 C 309.610 50.073,309.562 57.764,309.562 76.563 " stroke="none" fill="#4cb0f8" fill-rule="evenodd"></path><path id="path3" d="M309.562 76.563 C 309.562 95.361,309.610 103.052,309.668 93.652 C 309.726 84.253,309.726 68.872,309.668 59.473 C 309.610 50.073,309.562 57.764,309.562 76.563 " stroke="none" fill="#4cb0f8" fill-rule="evenodd"></path><path id="path4" d="M309.562 76.563 C 309.562 95.361,309.610 103.052,309.668 93.652 C 309.726 84.253,309.726 68.872,309.668 59.473 C 309.610 50.073,309.562 57.764,309.562 76.563 " stroke="none" fill="#4cb0f8" fill-rule="evenodd"></path></g></svg>