<?xml version="1.0" encoding="UTF-8"?><svg id="Layer_1" xmlns="http://www.w3.org/2000/svg" xmlns:xlink="http://www.w3.org/1999/xlink" viewBox="0 0 1366 768"><defs><style>.cls-1{stroke-width:.18px;}.cls-1,.cls-2,.cls-3,.cls-4,.cls-5,.cls-6,.cls-7,.cls-8,.cls-9,.cls-10,.cls-11,.cls-12,.cls-13{fill:none;stroke:#4ad6ff;stroke-miterlimit:10;}.cls-1,.cls-2,.cls-3,.cls-4,.cls-5,.cls-6,.cls-7,.cls-9,.cls-10,.cls-11,.cls-12,.cls-13{opacity:.5;}.cls-2{stroke-width:.33px;}.cls-3{stroke-width:.54px;}.cls-4{stroke-width:.29px;}.cls-5{stroke-width:.47px;}.cls-6{stroke-width:.45px;}.cls-7{stroke-width:.5px;}.cls-8{stroke-width:1.13px;}.cls-9{stroke-width:.2px;}.cls-10{stroke-width:.34px;}.cls-11{stroke-width:.34px;}.cls-12{stroke-width:.34px;}.cls-13{stroke-width:.34px;}.cls-14{filter:url(#outer-glow-1);}.cls-15{filter:url(#outer-glow-2);}</style><filter id="outer-glow-1" filterUnits="userSpaceOnUse"><feOffset dx="0" dy="0"/><feGaussianBlur result="blur" stdDeviation="116.78"/><feFlood flood-color="#000" flood-opacity=".35"/><feComposite in2="blur" operator="in"/><feComposite in="SourceGraphic"/></filter><filter id="outer-glow-2" filterUnits="userSpaceOnUse"><feOffset dx="0" dy="0"/><feGaussianBlur result="blur-2" stdDeviation="116.78"/><feFlood flood-color="#000" flood-opacity=".35"/><feComposite in2="blur-2" operator="in"/><feComposite in="SourceGraphic"/></filter></defs><line class="cls-11" x1="717.54" y1="327.99" x2="2095.52" y2="-15.1"/><line class="cls-12" x1="717.89" y1="585.52" x2="2097.34" y2="244.48"/><line class="cls-6" x1="1294.41" y1="-253.71" x2="1294.41" y2="184.59"/><line class="cls-7" x1="855.55" y1="-252.65" x2="855.55" y2="985.31"/><line class="cls-9" x1="1520.95" y1="517.06" x2="717.86" y2="130.39"/><line class="cls-13" x1="717.51" y1="429.25" x2="2109.56" y2="77.8"/><line class="cls-5" x1="985.14" y1="-255.08" x2="985.14" y2="986.05"/><line class="cls-3" x1="1192.77" y1="309.32" x2="1192.77" y2="990.16"/><line class="cls-4" x1="1580.39" y1="999.25" x2="717.97" y2="573.59"/><line class="cls-10" x1="717.64" y1="170.81" x2="2106.41" y2="-177.26"/><line class="cls-1" x1="1471.79" y1="599.22" x2="717.78" y2="231.36"/><line class="cls-2" x1="1955.85" y1="996.52" x2="717.61" y2="385.38"/><g><g class="cls-14"><path class="cls-8" d="M1294.26,178.4V37.65c0-5.42-5.08-9.39-10.34-8.09l-298.94,73.95v157.93l302.94-74.94c3.72-.92,6.34-4.26,6.34-8.09Z"/><path class="cls-8" d="M1192.66,461.25v-140.76c0-5.41-5.07-9.39-10.33-8.1l-197.34,48.52v157.93l201.32-49.5c3.73-.92,6.35-4.26,6.35-8.1Z"/></g><g class="cls-15"><path class="cls-8" d="M984.99,704.9v-187.35l-116.98-57.57c-5.54-2.73-12.02,1.31-12.02,7.48v168.76c0,3.18,1.81,6.08,4.66,7.48l124.35,61.19Z"/><path class="cls-8" d="M984.99,360.9v-100.87l-117.03-56.62c-5.54-2.68-11.97,1.35-11.97,7.51v82.35c0,3.2,1.83,6.11,4.71,7.51l124.3,60.14Z"/></g></g><line class="cls-7" x1="717.88" y1="-100.65" x2="717.88" y2="1137.31"/></svg>