<svg xmlns="http://www.w3.org/2000/svg" id="Layer_1" data-name="Layer 1" viewBox="0 0 122.88 106.08"><defs fill="#797a7b"><style>.cls-1{fill-rule:evenodd;}</style></defs><title>chat-reply</title><path class="cls-1" d="M114.07,54.18a29.78,29.78,0,0,0-11.86-7.3V9a9,9,0,0,0-9-9H9A9,9,0,0,0,0,9V75.47a9,9,0,0,0,2.65,6.34l.28.26A9,9,0,0,0,9,84.46H20v17.91a3.71,3.71,0,0,0,3.7,3.71,3.76,3.76,0,0,0,2.78-1.25L47.68,84.46H64.11a30.5,30.5,0,0,0,7.43,12.25,30.07,30.07,0,0,0,42.53-42.53ZM94.8,45.43a30.08,30.08,0,0,0-32,31.63H46.21a3.68,3.68,0,0,0-2.56,1L27.37,93.7v-13A3.71,3.71,0,0,0,23.66,77H9a1.64,1.64,0,0,1-1-.36l-.1-.1a1.58,1.58,0,0,1-.47-1.11V9A1.64,1.64,0,0,1,9,7.41H93.23a1.59,1.59,0,0,1,1.11.48A1.56,1.56,0,0,1,94.8,9V45.43ZM25.43,33.31a3.71,3.71,0,1,1,0-7.41H76.79a3.71,3.71,0,1,1,0,7.41Zm0,21.93a3.71,3.71,0,1,1,0-7.41H59.82a3.71,3.71,0,0,1,0,7.41ZM75.08,71.81,89.2,86.07V79c8.92-1.86,16,.19,21.34,7-.93-14-10.48-20.7-21.34-21.15V57.54L75.08,71.81Z" fill="#797a7b"/></svg>